<mxfile host="drawio-plugin" modified="2022-11-08T18:17:10.599Z" agent="5.0 (Windows NT 6.2; Win64; x64) AppleWebKit/537.36 (KHTML, like Gecko) Chrome/98.0.4758.102 Safari/537.36" etag="2QsCtsU6V7o26boXACGN" version="15.5.4" type="embed"><diagram id="WGN4KWLR9Hr2ETXDH9Bs" name="Page-1"><mxGraphModel dx="872" dy="295" grid="1" gridSize="10" guides="1" tooltips="1" connect="1" arrows="1" fold="1" page="1" pageScale="1" pageWidth="850" pageHeight="1100" math="0" shadow="0"><root><mxCell id="0"/><mxCell id="1" parent="0"/><mxCell id="2" value="ModelEvent" style="swimlane;fontStyle=1;align=center;verticalAlign=top;childLayout=stackLayout;horizontal=1;startSize=26;horizontalStack=0;resizeParent=1;resizeParentMax=0;resizeLast=0;collapsible=1;marginBottom=0;" parent="1" vertex="1"><mxGeometry y="180" width="270" height="78" as="geometry"/></mxCell><mxCell id="3" value="" style="line;strokeWidth=1;fillColor=none;align=left;verticalAlign=middle;spacingTop=-1;spacingLeft=3;spacingRight=3;rotatable=0;labelPosition=right;points=[];portConstraint=eastwest;" parent="2" vertex="1"><mxGeometry y="26" width="270" height="2" as="geometry"/></mxCell><mxCell id="5" value="" style="line;strokeWidth=1;fillColor=none;align=left;verticalAlign=middle;spacingTop=-1;spacingLeft=3;spacingRight=3;rotatable=0;labelPosition=right;points=[];portConstraint=eastwest;" parent="2" vertex="1"><mxGeometry y="28" width="270" height="8" as="geometry"/></mxCell><mxCell id="6" value="&lt;span&gt;+ ModelEvent(ScrabbleModel): void&lt;br&gt;+ getModel(): ScrabbleModel&lt;br&gt;&lt;/span&gt;" style="text;html=1;strokeColor=none;fillColor=none;align=left;verticalAlign=middle;whiteSpace=wrap;rounded=0;" parent="2" vertex="1"><mxGeometry y="36" width="270" height="42" as="geometry"/></mxCell><mxCell id="7" value="" style="endArrow=block;endSize=16;endFill=0;html=1;rounded=0;" parent="1" source="2" target="23" edge="1"><mxGeometry width="160" relative="1" as="geometry"><mxPoint x="644.5" y="2" as="sourcePoint"/><mxPoint x="370" y="150" as="targetPoint"/></mxGeometry></mxCell><mxCell id="8" value="AWTEvent" style="swimlane;fontStyle=1;align=center;verticalAlign=top;childLayout=stackLayout;horizontal=1;startSize=26;horizontalStack=0;resizeParent=1;resizeParentMax=0;resizeLast=0;collapsible=1;marginBottom=0;" parent="1" vertex="1"><mxGeometry x="290" y="20" width="270" height="62" as="geometry"/></mxCell><mxCell id="9" value="" style="line;strokeWidth=1;fillColor=none;align=left;verticalAlign=middle;spacingTop=-1;spacingLeft=3;spacingRight=3;rotatable=0;labelPosition=right;points=[];portConstraint=eastwest;" parent="8" vertex="1"><mxGeometry y="26" width="270" height="2" as="geometry"/></mxCell><mxCell id="10" value="" style="line;strokeWidth=1;fillColor=none;align=left;verticalAlign=middle;spacingTop=-1;spacingLeft=3;spacingRight=3;rotatable=0;labelPosition=right;points=[];portConstraint=eastwest;" parent="8" vertex="1"><mxGeometry y="28" width="270" height="8" as="geometry"/></mxCell><mxCell id="36" value="+ getSource(): Object" style="text;strokeColor=none;fillColor=none;align=left;verticalAlign=top;spacingLeft=4;spacingRight=4;overflow=hidden;rotatable=0;points=[[0,0.5],[1,0.5]];portConstraint=eastwest;" vertex="1" parent="8"><mxGeometry y="36" width="270" height="26" as="geometry"/></mxCell><mxCell id="11" value="ControllerEvent" style="swimlane;fontStyle=1;align=center;verticalAlign=top;childLayout=stackLayout;horizontal=1;startSize=26;horizontalStack=0;resizeParent=1;resizeParentMax=0;resizeLast=0;collapsible=1;marginBottom=0;" parent="1" vertex="1"><mxGeometry x="570" y="180" width="270" height="78" as="geometry"/></mxCell><mxCell id="12" value="" style="line;strokeWidth=1;fillColor=none;align=left;verticalAlign=middle;spacingTop=-1;spacingLeft=3;spacingRight=3;rotatable=0;labelPosition=right;points=[];portConstraint=eastwest;" parent="11" vertex="1"><mxGeometry y="26" width="270" height="2" as="geometry"/></mxCell><mxCell id="14" value="" style="line;strokeWidth=1;fillColor=none;align=left;verticalAlign=middle;spacingTop=-1;spacingLeft=3;spacingRight=3;rotatable=0;labelPosition=right;points=[];portConstraint=eastwest;" parent="11" vertex="1"><mxGeometry y="28" width="270" height="8" as="geometry"/></mxCell><mxCell id="15" value="&lt;span&gt;+ ControllerEvent(SController): void&lt;br&gt;+ getController(): SController&lt;br&gt;&lt;/span&gt;" style="text;html=1;strokeColor=none;fillColor=none;align=left;verticalAlign=middle;whiteSpace=wrap;rounded=0;" parent="11" vertex="1"><mxGeometry y="36" width="270" height="42" as="geometry"/></mxCell><mxCell id="16" value="" style="endArrow=block;endSize=16;endFill=0;html=1;rounded=0;" parent="1" source="11" target="23" edge="1"><mxGeometry width="160" relative="1" as="geometry"><mxPoint x="308.52941176470586" y="220" as="sourcePoint"/><mxPoint x="460" y="150" as="targetPoint"/></mxGeometry></mxCell><mxCell id="17" value="TileClickEvent" style="swimlane;fontStyle=1;align=center;verticalAlign=top;childLayout=stackLayout;horizontal=1;startSize=26;horizontalStack=0;resizeParent=1;resizeParentMax=0;resizeLast=0;collapsible=1;marginBottom=0;" parent="1" vertex="1"><mxGeometry x="570" y="290" width="270" height="78" as="geometry"/></mxCell><mxCell id="18" value="" style="line;strokeWidth=1;fillColor=none;align=left;verticalAlign=middle;spacingTop=-1;spacingLeft=3;spacingRight=3;rotatable=0;labelPosition=right;points=[];portConstraint=eastwest;" parent="17" vertex="1"><mxGeometry y="26" width="270" height="2" as="geometry"/></mxCell><mxCell id="20" value="" style="line;strokeWidth=1;fillColor=none;align=left;verticalAlign=middle;spacingTop=-1;spacingLeft=3;spacingRight=3;rotatable=0;labelPosition=right;points=[];portConstraint=eastwest;" parent="17" vertex="1"><mxGeometry y="28" width="270" height="8" as="geometry"/></mxCell><mxCell id="21" value="&lt;span&gt;+ selectEvent(): void&lt;br&gt;+ getTile(): Tile&lt;br&gt;&lt;/span&gt;" style="text;html=1;strokeColor=none;fillColor=none;align=left;verticalAlign=middle;whiteSpace=wrap;rounded=0;" parent="17" vertex="1"><mxGeometry y="36" width="270" height="42" as="geometry"/></mxCell><mxCell id="22" value="" style="endArrow=block;endSize=16;endFill=0;html=1;rounded=0;" parent="1" source="17" target="11" edge="1"><mxGeometry width="160" relative="1" as="geometry"><mxPoint x="511.8627450980391" y="220" as="sourcePoint"/><mxPoint x="448.52941176470586" y="186" as="targetPoint"/></mxGeometry></mxCell><mxCell id="23" value="ScrabbleEvent" style="swimlane;fontStyle=1;align=center;verticalAlign=top;childLayout=stackLayout;horizontal=1;startSize=26;horizontalStack=0;resizeParent=1;resizeParentMax=0;resizeLast=0;collapsible=1;marginBottom=0;" parent="1" vertex="1"><mxGeometry x="290" y="110" width="270" height="28" as="geometry"/></mxCell><mxCell id="24" value="" style="line;strokeWidth=1;fillColor=none;align=left;verticalAlign=middle;spacingTop=-1;spacingLeft=3;spacingRight=3;rotatable=0;labelPosition=right;points=[];portConstraint=eastwest;" parent="23" vertex="1"><mxGeometry y="26" width="270" height="2" as="geometry"/></mxCell><mxCell id="26" value="" style="endArrow=block;endSize=16;endFill=0;html=1;rounded=0;" parent="1" source="23" target="8" edge="1"><mxGeometry width="160" relative="1" as="geometry"><mxPoint x="294.2105263157896" y="220" as="sourcePoint"/><mxPoint x="393.68421052631584" y="136" as="targetPoint"/></mxGeometry></mxCell><mxCell id="27" value="For now, only purpose is to differentiate between our defined events and Java events. May not be used much." style="shape=note;whiteSpace=wrap;html=1;backgroundOutline=1;darkOpacity=0.05;size=15;" parent="1" vertex="1"><mxGeometry x="615" y="40" width="180" height="74" as="geometry"/></mxCell><mxCell id="28" value="" style="endArrow=none;dashed=1;html=1;dashPattern=1 3;strokeWidth=2;rounded=0;" parent="1" source="23" target="27" edge="1"><mxGeometry width="50" height="50" relative="1" as="geometry"><mxPoint x="430" y="180" as="sourcePoint"/><mxPoint x="480" y="130" as="targetPoint"/></mxGeometry></mxCell><mxCell id="29" value="HandChangeEvent" style="swimlane;fontStyle=1;align=center;verticalAlign=top;childLayout=stackLayout;horizontal=1;startSize=26;horizontalStack=0;resizeParent=1;resizeParentMax=0;resizeLast=0;collapsible=1;marginBottom=0;" parent="1" vertex="1"><mxGeometry y="290" width="270" height="78" as="geometry"/></mxCell><mxCell id="30" value="" style="line;strokeWidth=1;fillColor=none;align=left;verticalAlign=middle;spacingTop=-1;spacingLeft=3;spacingRight=3;rotatable=0;labelPosition=right;points=[];portConstraint=eastwest;" parent="29" vertex="1"><mxGeometry y="26" width="270" height="2" as="geometry"/></mxCell><mxCell id="32" value="" style="line;strokeWidth=1;fillColor=none;align=left;verticalAlign=middle;spacingTop=-1;spacingLeft=3;spacingRight=3;rotatable=0;labelPosition=right;points=[];portConstraint=eastwest;" parent="29" vertex="1"><mxGeometry y="28" width="270" height="8" as="geometry"/></mxCell><mxCell id="33" value="&lt;span&gt;+ HandChangeEvent(ScrabbleModel): void&lt;br&gt;+ getHand(): Hand&lt;br&gt;&lt;/span&gt;" style="text;html=1;strokeColor=none;fillColor=none;align=left;verticalAlign=middle;whiteSpace=wrap;rounded=0;" parent="29" vertex="1"><mxGeometry y="36" width="270" height="42" as="geometry"/></mxCell><mxCell id="34" value="" style="endArrow=block;endSize=16;endFill=0;html=1;rounded=0;" parent="1" source="29" target="2" edge="1"><mxGeometry width="160" relative="1" as="geometry"><mxPoint x="280" y="172.51724137931035" as="sourcePoint"/><mxPoint x="383.82352941176464" y="136" as="targetPoint"/></mxGeometry></mxCell></root></mxGraphModel></diagram></mxfile>